<svg xmlns="http://www.w3.org/2000/svg" xmlns:xlink="http://www.w3.org/1999/xlink" viewBox="0 0 101.84 157"><defs><style>.cls-1,.cls-2,.cls-3{stroke:#fff;stroke-miterlimit:10;stroke-width:0.25px;}.cls-1{opacity:0.31;fill:url(#linear-gradient);}.cls-2{opacity:0.58;fill:url(#linear-gradient-2);}.cls-3{fill:url(#linear-gradient-3);}</style><linearGradient id="linear-gradient" x1="9.75" y1="77.96" x2="101.67" y2="77.96" gradientUnits="userSpaceOnUse"><stop offset="0" stop-color="#fd00da" stop-opacity="0.7"/><stop offset="0.12" stop-color="#fd22b6" stop-opacity="0.68"/><stop offset="0.42" stop-color="#fe6a68" stop-opacity="0.65"/><stop offset="0.67" stop-color="#ff9f30" stop-opacity="0.62"/><stop offset="0.88" stop-color="#ffc00d" stop-opacity="0.61"/><stop offset="1" stop-color="#fc0" stop-opacity="0.6"/></linearGradient><linearGradient id="linear-gradient-2" x1="5.18" y1="78.05" x2="97.1" y2="78.05" xlink:href="#linear-gradient"/><linearGradient id="linear-gradient-3" x1="0.18" y1="79.05" x2="92.1" y2="79.05" xlink:href="#linear-gradient"/></defs><title>Asset 5</title><g id="Layer_2" data-name="Layer 2"><g id="Layer_1-2" data-name="Layer 1"><polygon class="cls-1" points="101.67 77.96 94.6 85.03 23.89 155.74 16.82 148.67 9.75 141.6 73.39 77.96 80.46 85.03 87.53 77.96 80.46 70.89 73.39 77.96 9.75 14.32 23.89 0.18 101.67 77.96"/><polygon class="cls-2" points="97.1 78.05 90.03 85.12 19.32 155.83 12.25 148.76 5.18 141.69 68.82 78.05 75.89 85.12 82.96 78.05 75.89 70.98 68.82 78.05 5.18 14.41 19.32 0.27 97.1 78.05"/><polygon class="cls-3" points="92.1 79.05 85.03 86.12 14.32 156.83 7.25 149.76 0.18 142.69 63.82 79.05 70.89 86.12 77.96 79.05 70.89 71.98 63.82 79.05 0.18 15.41 14.32 1.27 92.1 79.05"/></g></g></svg>